# AST/ASF file generated using VICON BodyLanguage
# -----------------------------------------------
:version 1.10
:name VICON
:units
  mass 1.0
  length 0.45
  angle deg
:documentation
   .ast/.asf automatically generated from VICON data using
   VICON BodyBuilder and BodyLanguage model FoxedUp or BRILLIANT.MOD
:root
   order TX TY TZ RX RY RZ
   axis XYZ
   position 0 0 0  
   orientation 0 0 0 
:bonedata
  begin
     id 1 
     name lhipjoint
     direction 0.635376 -0.686425 0.353719 
     length 2.47244 
     axis 0 0 0  XYZ
  end
  begin
     id 2 
     name lfemur
     direction 0.34202 -0.939693 0  
     length 7.25268  
     axis 0 0 20  XYZ
    dof rx ry rz
    limits (-160.0 20.0)
           (-70.0 70.0)
           (-60.0 70.0)
  end
  begin
     id 3 
     name ltibia
     direction 0.34202 -0.939693 0   
     length 7.6767   
     axis 0 0 20   XYZ
    dof rx
    limits (-10.0 170.0)
  end
  begin
     id 4 
     name lfoot
     direction 0.0803374 -0.220725 0.972022   
     length 2.22945   
     axis -90 7.62852e-016 20   XYZ
    dof rx rz
    limits (-45.0 90.0)
           (-70.0 20.0)
  end
  begin
     id 5 
     name ltoes
     direction 1.53579e-011 -4.21994e-011 1   
     length 1.11848   
     axis -90 7.62852e-016 20   XYZ
    dof rx
    limits (-90.0 20.0)
  end
  begin
     id 6 
     name rhipjoint
     direction -0.664428 -0.664335 0.342336   
     length 2.55466  
     axis 0 0 0  XYZ 
  end
  begin
     id 7 
     name rfemur
     direction -0.34202 -0.939693 0   
     length 6.83172   
     axis 0 0 -20   XYZ
    dof rx ry rz
    limits (-160.0 20.0)
           (-70.0 70.0)
           (-70.0 60.0)
  end
  begin
     id 8 
     name rtibia
     direction -0.34202 -0.939693 0   
     length 7.62692   
     axis 0 0 -20   XYZ
    dof rx
    limits (-10.0 170.0)
 end
 begin
     id 9 
     name rfoot
     direction -0.0949276 -0.260811 0.960711   
     length 2.19684  
     axis -90 -7.62852e-016 -20   XYZ
    dof rx rz
    limits (-45.0 90.0)
           (-20.0 70.0)
  end
  begin
     id 10 
     name rtoes
     direction -1.53543e-011 -4.2183e-011 1   
     length 1.09848   
     axis -90 -7.62852e-016 -20   XYZ
    dof rx
    limits (-90.0 20.0)
  end
  begin
     id 11 
     name lowerback
     direction 0.0118782 0.999815 -0.0151555   
     length 2.15772   
     axis 0 0 0   XYZ
    dof rx ry rz
    limits (-20.0 45.0)
           (-30.0 30.0)
           (-30.0 30.0)
  end
  begin
     id 12 
     name upperback
     direction 0.00130825 0.999065 0.0432113   
     length 2.14863   
     axis 0 0 0   XYZ
    dof rx ry rz
    limits (-20.0 45.0)
           (-30.0 30.0)
           (-30.0 30.0)
  end
  begin
     id 13 
     name thorax
     direction -0.00347005 0.998773 0.0494011   
     length 2.14936   
     axis 0 0 0   XYZ
    dof rx ry rz
    limits (-20.0 45.0)
           (-30.0 30.0)
           (-30.0 30.0)
  end
  begin
     id 14 
     name lowerneck
     direction -0.0262159 0.99424 0.103921   
     length 1.69373   
     axis 0 0 0   XYZ
    dof rx ry rz
    limits (-20.0 45.0)
           (-30.0 30.0)
           (-30.0 30.0)
  end
  begin
     id 15 
     name upperneck
     direction 0.0353511 0.977394 -0.20845   
     length 1.70857   
     axis 0 0 0   XYZ
    dof rx ry rz
    limits (-20.0 45.0)
           (-30.0 30.0)
           (-30.0 30.0)
  end
  begin
     id 16
     name head
     direction 0.0139214 0.996594 -0.0812836  
     length 1.72777  
     axis 0 0 0   XYZ
    dof rx ry rz
    limits (-20.0 45.0)
           (-30.0 30.0)
           (-30.0 30.0)
  end
  begin
     id 17 
     name lclavicle
     direction 0.841247 0.537205 -0.0609508  
     length 3.55371  
     axis 0 0 0   XYZ
    dof ry rz
    limits (-20.0 10.0)
           (0.0 20.0)
  end
  begin
     id 18 
     name lhumerus
     direction 1 -4.48964e-011 1.60116e-018   
     length 4.91377   
     axis -180 -30 -90   XYZ
    dof rx ry rz
    limits (-60.0 90.0)
           (-90.0 90.0)
           (-90.0 90.0)
  end
  begin
     id 19
     name lradius
     direction 1 -4.48989e-011 -8.93847e-027   
     length 3.00291   
     axis -180 -30 -90   XYZ
    dof rx
    limits (-10.0 170.0)
  end
  begin
     id 20
     name lwrist
     direction 1 -4.48932e-011 -7.31504e-027   
     length 1.50145   
     axis 5.74121e-015 90 90   XYZ
    dof ry
    limits (-180.0 0.0)
 end
  begin
     id 21 
     name lhand
     direction 1 -4.48971e-011 -1.46301e-026   
     length 0.450922   
     axis 9.33524e-015 90 90   XYZ
    dof rx rz
    limits (-90.0 90.0)
           (-45.0 45.0)
  end
  begin
     id 22 
     name lfingers
     direction 1 -4.49039e-011 -2.92602e-026   
     length 0.363545   
     axis 1.86705e-014 90 90   XYZ
    dof rx
    limits (0.0 90.0)
  end
  begin
     id 23
     name lthumb
     direction 0.707107 -6.34941e-011 0.707107   
     length 0.52198   
     axis -90 45 2.85299e-015   XYZ
    dof rx rz
    limits (-45.0 45.0)
           (-45.0 45.0)
  end
  begin
     id 24 
     name rclavicle
     direction -0.825079 0.56158 -0.0622297   
     length 3.39909  
     axis 0 0 0   XYZ 
    dof ry rz
    limits (-10.0 20.0)
           (-20.0 0.0)
  end
  begin
     id 25 
     name rhumerus
     direction -1 -4.48965e-011 1.61691e-027  
     length 4.86725   
     axis -180 30 90   XYZ
    dof rx ry rz
    limits (-90.0 60.0)
           (-90.0 90.0)
           (-90.0 90.0)
  end
  begin
     id 26 
     name rradius
     direction -1 -4.48964e-011 -2.25776e-027   
     length 3.17144   
     axis -180 30 90   XYZ
    dof rx
    limits (-10.0 170.0)
  end
  begin
     id 27 
     name rwrist
     direction -1 -4.48961e-011 -7.31504e-027   
     length 1.58572   
     axis 5.74121e-015 -90 -90   XYZ
    dof ry
    limits (-180.0 0.0)
  end
  begin
     id 28
     name rhand
     direction -1 -4.49013e-011 -1.46301e-026   
     length 0.419368   
     axis 9.33524e-015 -90 -90   XYZ
    dof rx rz
    limits (-90.0 90.0)
           (-45.0 45.0)
  end
  begin
     id 29
     name rfingers
     direction -1 -4.489e-011 -2.92602e-026   
     length 0.338105   
     axis 1.86705e-014 -90 -90   XYZ
    dof rx
    limits (0.0 90.0)
  end
  begin
     id 30
     name rthumb
     direction -0.707107 -6.35022e-011 0.707107   
     length 0.485453   
     axis -90 -45 -2.85299e-015   XYZ
    dof rx rz
    limits (-45.0 45.0)
           (-45.0 45.0)
  end
:hierarchy
  begin
    root lhipjoint rhipjoint lowerback
    lhipjoint lfemur
    lfemur ltibia
    ltibia lfoot
    lfoot ltoes
    rhipjoint rfemur
    rfemur rtibia
    rtibia rfoot
    rfoot rtoes
    lowerback upperback
    upperback thorax
    thorax lowerneck lclavicle rclavicle
    lowerneck upperneck
    upperneck head
    lclavicle lhumerus
    lhumerus lradius
    lradius lwrist
    lwrist lhand lthumb
    lhand lfingers
    rclavicle rhumerus
    rhumerus rradius
    rradius rwrist
    rwrist rhand rthumb
    rhand rfingers
  end

#!OML:ASF H:\Swim 2\Project 1\Capture day 1\Session 1\male.ASF
:FULLY-SPECIFIED
:DEGREES
568
root 7.84312 8.9083 12.6517 96.1286 -0.786512 181.57
lowerback 3.67225 -4.04187 2.07636
upperback -9.80938 -5.9496 2.20944
thorax -12.6208 -3.19332 2.17076
lowerneck -11.1819 -2.52134 5.75364
upperneck 54.4723 9.44368 -9.71892
head 39.7785 10.8178 -1.75305
rclavicle 9.85972e-014 -2.5842e-014
rhumerus -95.8604 35.5846 -85.7879
rradius 77.64
rwrist -28.9094
rhand -43.6914 17.6307
rfingers 7.12502
rthumb -16.5241 -11.6857
lclavicle 9.85972e-014 -2.5842e-014
lhumerus 49.5538 -13.1105 51.3841
lradius 4.66036
lwrist -70.8696
lhand -13.0386 -2.63551
lfingers 7.12502
lthumb 13.056 26.9359
rfemur 5.31795 8.74886 19.4055
rtibia 25.8547
rfoot 2.46479 -10.0113
rtoes 22.9835
lfemur 3.9584 -2.98682 -30.1891
ltibia 31.5587
lfoot 0.346262 2.40586
ltoes -5.04248
569
root 7.84221 8.90713 12.6379 95.6452 -1.00482 181.587
lowerback 4.13291 -3.90076 1.96601
upperback -9.58018 -5.70474 2.0018
thorax -12.6511 -3.05341 1.99407
lowerneck -11.3025 -2.74072 6.10672
upperneck 54.5235 8.91644 -9.64143
head 40.2743 10.8484 -1.89836
rclavicle -1.59028e-015 -2.14687e-014
rhumerus -96.7586 34.7826 -87.693
rradius 76.5512
rwrist -28.2797
rhand -42.0973 17.0318
rfingers 7.12502
rthumb -14.9889 -12.4058
lclavicle -1.59028e-015 -2.14687e-014
lhumerus 51.7405 -13.6664 49.2135
lradius 4.95917
lwrist -70.0737
lhand -13.4771 -2.77623
lfingers 7.12502
lthumb 12.6333 26.8217
rfemur 6.71183 8.71403 19.4901
rtibia 25.9111
rfoot 2.6543 -9.58282
rtoes 23.0923
lfemur 3.71131 -2.75299 -30.2322
ltibia 31.1465
lfoot 0.158374 3.41357
ltoes -5.03391
570
root 7.83972 8.90963 12.6303 95.2649 -1.20126 181.519
lowerback 4.47169 -3.71981 1.90833
upperback -9.37456 -5.41393 1.7883
thorax -12.6386 -2.90133 1.76355
lowerneck -11.4417 -2.95942 6.42321
upperneck 54.5778 8.37087 -9.52794
head 40.7654 10.8595 -2.01246
rclavicle -6.04305e-014 3.97569e-016
rhumerus -97.5797 34.0186 -89.4189
rradius 75.3025
rwrist -26.9353
rhand -40.6217 16.8974
rfingers 7.12502
rthumb -13.567 -12.6406
lclavicle -6.04305e-014 3.97569e-016
lhumerus 53.9598 -14.1665 46.8729
lradius 5.29942
lwrist -68.659
lhand -13.9751 -3.03718
lfingers 7.12502
lthumb 12.1531 26.5898
rfemur 8.04991 8.69504 19.5467
rtibia 25.8193
rfoot 3.0476 -9.06557
rtoes 22.9629
lfemur 3.41022 -2.5034 -30.2454
ltibia 30.6386
lfoot 0.038226 4.40175
ltoes -4.97118
571
root 7.83539 8.91543 12.6293 94.9716 -1.32531 181.371
lowerback 4.71255 -3.50224 1.95985
upperback -9.18872 -5.07319 1.57895
thorax -12.597 -2.73946 1.4613
lowerneck -11.5966 -3.17347 6.70243
upperneck 54.6361 7.81276 -9.37401
head 41.2453 10.8502 -2.0883
rclavicle -3.81667e-014 2.46493e-014
rhumerus -98.3354 33.2782 -90.9813
rradius 73.9265
rwrist -25.0054
rhand -39.3799 17.0817
rfingers 7.12502
rthumb -12.37 -12.5323
lclavicle -3.81667e-014 2.46493e-014
lhumerus 56.2096 -14.5946 44.3901
lradius 5.68021
lwrist -66.606
lhand -14.4991 -3.40348
lfingers 7.12502
lthumb 11.6478 26.2528
rfemur 9.33401 8.69839 19.6323
rtibia 25.5802
rfoot 3.56179 -8.46362
rtoes 22.6242
lfemur 3.08497 -2.26345 -30.181
ltibia 30.0398
lfoot -0.221086 5.42508
ltoes -5.55467
572
root 7.82974 8.92397 12.6318 94.6747 -1.38941 181.155
lowerback 4.95485 -3.25909 2.09453
upperback -8.99969 -4.69128 1.37009
thorax -12.5566 -2.56628 1.10583
lowerneck -11.7683 -3.37286 6.94515
upperneck 54.7003 7.24575 -9.17205
head 41.6745 10.8124 -2.12043
rclavicle -1.90833e-014 4.37326e-015
rhumerus -99.0337 32.562 -92.4179
rradius 72.4546
rwrist -22.709
rhand -38.4029 17.3495
rfingers 7.12502
rthumb -11.4278 -12.319
lclavicle -1.90833e-014 4.37326e-015
lhumerus 58.4768 -14.934 41.8214
lradius 6.10333
lwrist -64.0331
lhand -14.993 -3.83404
lfingers 7.12502
lthumb 11.1715 25.8486
rfemur 10.6449 8.72452 19.7518
rtibia 25.2127
rfoot 3.98011 -7.88122
rtoes 22.758
lfemur 2.83691 -2.04229 -30.0568
ltibia 29.361
lfoot -0.685304 6.51308
ltoes -6.89387
573
root 7.82299 8.93436 12.6371 94.3812 -1.39745 180.882
lowerback 5.19412 -2.99453 2.31013
upperback -8.81038 -4.27424 1.16182
thorax -12.5157 -2.38442 0.698671
lowerneck -11.9546 -3.55627 7.15323
upperneck 54.7689 6.67674 -8.92878
head 42.0498 10.7478 -2.11217
rclavicle -1.27222e-014 1.94809e-014
rhumerus -99.6891 31.8759 -93.785
rradius 70.9137
rwrist -20.2756
rhand -37.7329 17.6488
rfingers 7.12502
rthumb -10.7817 -12.0545
lclavicle -1.27222e-014 1.94809e-014
lhumerus 60.7571 -15.1763 39.1741
lradius 6.57751
lwrist -61.0983
lhand -15.4163 -4.2651
lfingers 7.12502
lthumb 10.7632 25.4391
rfemur 11.9397 8.7747 19.9012
rtibia 24.7563
rfoot 4.25603 -7.35357
rtoes 23.5405
lfemur 2.65832 -1.87002 -29.8793
ltibia 28.6199
lfoot -1.3213 7.66205
ltoes -8.85469
574
root 7.81553 8.94559 12.6445 94.1061 -1.36175 180.566
lowerback 5.42084 -2.71337 2.5906
upperback -8.62759 -3.8311 0.955698
thorax -12.4727 -2.19675 0.251084
lowerneck -12.1511 -3.72581 7.32996
upperneck 54.8383 6.11102 -8.66212
head 42.3652 10.6601 -2.07889
rclavicle 4.77083e-015 -3.37934e-015
rhumerus -100.288 31.2127 -95.1011
rradius 69.3084
rwrist -17.8543
rhand -37.3464 17.9761
rfingers 7.12502
rthumb -10.4088 -11.7463
lclavicle 4.77083e-015 -3.37934e-015
lhumerus 63.0437 -15.3138 36.4546
lradius 7.11318
lwrist -57.98
lhand -15.7543 -4.61245
lfingers 7.12502
lthumb 10.4371 25.1085
rfemur 13.1564 8.8385 20.0648
rtibia 24.2712
rfoot 4.57564 -6.79524
rtoes 24.2656
lfemur 2.53352 -1.77554 -29.6633
ltibia 27.8323
lfoot -2.07356 8.85341
ltoes -11.2046
575
root 7.80789 8.95654 12.6543 93.896 -1.31333 180.222
lowerback 5.59426 -2.41716 2.9034
upperback -8.46851 -3.37151 0.74716
thorax -12.4186 -2.00597 -0.22379
lowerneck -12.3526 -3.88591 7.47722
upperneck 54.909 5.54829 -8.37829
head 42.6291 10.5532 -2.0252
rclavicle 1.59028e-015 -1.98785e-015
rhumerus -100.827 30.5621 -96.3833
rradius 67.6468
rwrist -15.5313
rhand -37.1816 18.278
rfingers 7.12502
rthumb -10.2498 -11.4523
lclavicle 1.59028e-015 -1.98785e-015
lhumerus 65.3284 -15.3447 33.652
lradius 7.72275
lwrist -54.8363
lhand -15.9828 -4.8597
lfingers 7.12502
lthumb 10.2167 24.8722
rfemur 14.1952 8.88913 20.1943
rtibia 23.82
rfoot 4.99303 -6.16344
rtoes 24.9499
lfemur 2.40766 -1.77947 -29.439
ltibia 27.0173
lfoot -2.76942 10.046
ltoes -13.4346
576
root 7.80056 8.96625 12.6658 93.7579 -1.2825 179.869
lowerback 5.71139 -2.1116 3.20819
upperback -8.33657 -2.90836 0.533584
thorax -12.3525 -1.81449 -0.70345
lowerneck -12.5543 -4.04502 7.59784
upperneck 54.9775 4.98688 -8.10089
head 42.8458 10.4323 -1.97405
rclavicle 1.11319e-014 5.96354e-015
rhumerus -101.308 29.9242 -97.6551
rradius 65.9032
rwrist -13.2948
rhand -37.2488 18.6491
rfingers 7.12502
rthumb -10.3146 -11.078
lclavicle 1.11319e-014 5.96354e-015
lhumerus 67.6001 -15.259 30.7447
lradius 8.42053
lwrist -51.7438
lhand -16.1323 -4.96141
lfingers 7.12502
lthumb 10.0725 24.7775
rfemur 15.006 8.91877 20.2599
rtibia 23.4623
rfoot 5.50882 -5.46406
rtoes 25.4372
lfemur 2.27679 -1.90359 -29.2407
ltibia 26.1953
lfoot -3.33992 11.2223
ltoes -15.114
577
root 7.79418 8.97399 12.679 93.7035 -1.28323 179.527
lowerback 5.76298 -1.80148 3.47985
upperback -8.23586 -2.45214 0.316545
thorax -12.2722 -1.62513 -1.16953
lowerneck -12.7506 -4.21485 7.68854
upperneck 55.0427 4.42407 -7.83577
head 43.0558 10.3054 -1.92607
rclavicle 7.95139e-015 -1.68967e-014
rhumerus -101.704 29.2877 -98.9032
rradius 64.0523
rwrist -11.1109
rhand -37.4744 19.0485
rfingers 7.12502
rthumb -10.5322 -10.6676
lclavicle 7.95139e-015 -1.68967e-014
lhumerus 69.8404 -15.047 27.7233
lradius 9.2055
lwrist -48.7367
lhand -16.2354 -4.90398
lfingers 7.12502
lthumb 9.97303 24.8398
rfemur 15.548 8.91078 20.2484
rtibia 23.2332
rfoot 6.11284 -4.71712
rtoes 25.6583
lfemur 2.12447 -2.15529 -29.0821
ltibia 25.3919
lfoot -3.76465 12.3707
ltoes -16.1358
578
root 7.78894 8.97928 12.6935 93.7453 -1.32273 179.207
lowerback 5.73516 -1.48961 3.70479
upperback -8.16914 -2.00956 0.0975377
thorax -12.173 -1.43995 -1.61067
lowerneck -12.9386 -4.40305 7.74866
upperneck 55.104 3.85541 -7.58108
head 43.2912 10.1776 -1.87672
rclavicle -1.03368e-014 1.03368e-014
rhumerus -101.998 28.6434 -100.116
rradius 62.0713
rwrist -8.9382
rhand -37.8116 19.4488
rfingers 7.12502
rthumb -10.8576 -10.2505
lclavicle -1.03368e-014 1.03368e-014
lhumerus 72.0265 -14.6988 24.5974
lradius 10.0693
lwrist -45.8044
lhand -16.3297 -4.72191
lfingers 7.12502
lthumb 9.88211 25.0262
rfemur 15.7939 8.85684 20.1535
rtibia 23.1429
rfoot 6.84935 -3.90705
rtoes 25.3448
lfemur 1.9304 -2.52795 -28.9692
ltibia 24.6355
lfoot -3.99283 13.4726
ltoes -16.3937
579
root 7.78479 8.98224 12.7076 93.8098 -1.36671 178.922
lowerback 5.70158 -1.18635 3.91049
upperback -8.11398 -1.584 -0.112793
thorax -12.0766 -1.26107 -2.02754
lowerneck -13.1174 -4.61181 7.77815
upperneck 55.1614 3.27855 -7.32755
head 43.5725 10.0509 -1.81495
rclavicle 1.51076e-014 3.37934e-015
rhumerus -102.182 27.9822 -101.276
rradius 59.9516
rwrist -6.72234
rhand -38.1595 19.7968
rfingers 7.12502
rthumb -11.1931 -9.88463
lclavicle 1.51076e-014 3.37934e-015
lhumerus 74.6435 -14.7463 19.325
lradius 11.0163
lwrist -40.8745
lhand -16.5574 -4.07216
lfingers 7.12502
lthumb 9.66239 25.6862
rfemur 15.828 8.75607 20.0353
rtibia 23.1828
rfoot 7.53056 -3.14594
rtoes 24.9189
lfemur 1.77302 -3.0038 -28.8713
ltibia 23.9541
lfoot -4.18536 14.5309
ltoes -16.5146
580
root 7.78157 8.98314 12.7192 93.847 -1.40134 178.675
lowerback 5.70824 -0.896671 4.10648
upperback -8.05521 -1.17572 -0.307936
thorax -11.9952 -1.08821 -2.41797
lowerneck -13.2854 -4.84053 7.77987
upperneck 55.2141 2.69357 -7.07308
head 43.9001 9.92619 -1.73844
rclavicle -2.06736e-014 1.03368e-014
rhumerus -102.249 27.2924 -102.349
rradius 57.7062
rwrist -4.42672
rhand -38.3668 20.0171
rfingers 7.12502
rthumb -11.3931 -9.65341
lclavicle -2.06736e-014 1.03368e-014
lhumerus 76.9763 -14.3377 14.5615
lradius 12.031
lwrist -36.5525
lhand -16.8443 -3.40952
lfingers 7.12502
lthumb 9.38559 26.3615
rfemur 15.7183 8.61789 19.9242
rtibia 23.3285
rfoot 8.05474 -2.50949
rtoes 24.5995
lfemur 1.6995 -3.53446 -28.777
ltibia 23.3725
lfoot -4.43253 15.525
ltoes -16.6437
581
root 7.77901 8.98227 12.7278 93.8557 -1.42155 178.461
lowerback 5.75255 -1.08647 4.25282
upperback -7.99692 -0.651559 -0.438068
thorax -11.9439 -0.58031 -2.78427
lowerneck -13.4406 -5.08357 7.76508
upperneck 55.2615 2.1039 -6.81723
head 44.2627 9.80544 -1.64854
rclavicle 3.97569e-015 -4.07509e-015
rhumerus -102.229 26.5702 -103.33
rradius 55.378
rwrist -2.03967
rhand -38.3113 20.0326
rfingers 7.12502
rthumb -11.3395 -9.64081
lclavicle 3.97569e-015 -4.07509e-015
lhumerus 79.0284 -13.5846 10.1784
lradius 13.1017
lwrist -32.6448
lhand -17.1876 -2.74599
lfingers 7.12502
lthumb 9.05436 27.0397
rfemur 15.4851 8.45706 19.8317
rtibia 23.5429
rfoot 8.41165 -2.02557
rtoes 24.3741
lfemur 1.70656 -4.08368 -28.6825
ltibia 22.9107
lfoot -4.67772 16.4093
ltoes -16.7756
